<?xml version="1.0" standalone="no"?>
<!DOCTYPE svg PUBLIC "-//W3C//DTD SVG 20010904//EN"
 "http://www.w3.org/TR/2001/REC-SVG-20010904/DTD/svg10.dtd">
<svg version="1.0" xmlns="http://www.w3.org/2000/svg"
 width="192.000000pt" height="192.000000pt" viewBox="0 0 192.000000 192.000000"
 preserveAspectRatio="xMidYMid meet">
<metadata>
Created by potrace 1.14, written by Peter Selinger 2001-2017
</metadata>
<g transform="translate(0.000000,192.000000) scale(0.100000,-0.100000)"
fill="#000000" stroke="none">
<path d="M136 1805 c-27 -13 -33 -66 -11 -85 12 -10 49 -14 131 -13 77 0 114
-3 115 -11 0 -6 2 -18 4 -26 2 -8 6 -32 10 -54 4 -21 9 -48 11 -60 3 -11 7
-39 10 -61 3 -22 9 -62 14 -90 6 -27 12 -67 16 -89 3 -21 8 -48 10 -60 11 -56
16 -83 18 -106 2 -14 15 -93 30 -176 14 -84 26 -160 26 -170 0 -11 -12 -24
-29 -32 -98 -43 -144 -175 -96 -275 27 -58 66 -91 137 -116 26 -10 27 -11 14
-43 -16 -39 -13 -111 7 -159 26 -62 91 -111 166 -124 42 -7 128 18 162 48 29
25 74 87 63 87 -3 0 -2 6 4 13 11 13 10 103 -2 147 l-7 25 163 -1 c225 -3 213
-1 199 -18 -6 -8 -14 -31 -17 -52 -21 -167 134 -294 288 -235 41 16 106 79
117 114 18 57 20 98 6 143 -7 24 -10 44 -7 45 4 0 29 2 55 3 29 1 52 8 58 17
13 21 11 67 -3 76 -7 4 -293 10 -635 13 l-621 5 -26 24 c-53 49 -38 145 26
172 23 9 162 13 584 13 541 1 553 1 568 21 9 11 16 29 16 40 1 11 3 29 5 40 2
11 7 40 11 65 4 25 8 50 9 55 2 6 10 55 19 110 9 55 18 112 21 128 15 85 25
147 30 182 3 22 8 45 10 51 2 7 -5 21 -16 33 -20 21 -22 21 -644 21 -411 0
-626 3 -630 10 -5 9 -24 115 -52 290 -11 71 -16 73 -175 74 -79 1 -151 -4
-162 -9z"/>
</g>
</svg>
